<svg width="78" height="45" viewBox="0 0 78 45" fill="none" xmlns="http://www.w3.org/2000/svg">
<g id="Instagram">
<rect id="Rectangle 5" width="78" height="45" rx="14" fill="url(#paint0_linear_1_12)"/>
<path id="Instagram_2" d="M13.4316 34H11.9551V25.4688H13.4316V34ZM16.4375 27.6602L16.4785 28.3926C16.9473 27.8262 17.5625 27.543 18.3242 27.543C19.6445 27.543 20.3164 28.2988 20.3398 29.8105V34H18.916V29.8926C18.916 29.4902 18.8281 29.1934 18.6523 29.002C18.4805 28.8066 18.1973 28.709 17.8027 28.709C17.2285 28.709 16.8008 28.9688 16.5195 29.4883V34H15.0957V27.6602H16.4375ZM25.3496 32.2773C25.3496 32.0234 25.2441 31.8301 25.0332 31.6973C24.8262 31.5645 24.4805 31.4473 23.9961 31.3457C23.5117 31.2441 23.1074 31.1152 22.7832 30.959C22.0723 30.6152 21.7168 30.1172 21.7168 29.4648C21.7168 28.918 21.9473 28.4609 22.4082 28.0938C22.8691 27.7266 23.4551 27.543 24.166 27.543C24.9238 27.543 25.5352 27.7305 26 28.1055C26.4688 28.4805 26.7031 28.9668 26.7031 29.5645H25.2793C25.2793 29.291 25.1777 29.0645 24.9746 28.8848C24.7715 28.7012 24.502 28.6094 24.166 28.6094C23.8535 28.6094 23.5977 28.6816 23.3984 28.8262C23.2031 28.9707 23.1055 29.1641 23.1055 29.4062C23.1055 29.625 23.1973 29.7949 23.3809 29.916C23.5645 30.0371 23.9355 30.1602 24.4941 30.2852C25.0527 30.4062 25.4902 30.5527 25.8066 30.7246C26.127 30.8926 26.3633 31.0957 26.5156 31.334C26.6719 31.5723 26.75 31.8613 26.75 32.2012C26.75 32.7715 26.5137 33.2344 26.041 33.5898C25.5684 33.9414 24.9492 34.1172 24.1836 34.1172C23.6641 34.1172 23.2012 34.0234 22.7949 33.8359C22.3887 33.6484 22.0723 33.3906 21.8457 33.0625C21.6191 32.7344 21.5059 32.3809 21.5059 32.002H22.8887C22.9082 32.3379 23.0352 32.5977 23.2695 32.7812C23.5039 32.9609 23.8145 33.0508 24.2012 33.0508C24.5762 33.0508 24.8613 32.9805 25.0566 32.8398C25.252 32.6953 25.3496 32.5078 25.3496 32.2773ZM29.7793 26.1191V27.6602H30.8984V28.7148H29.7793V32.2539C29.7793 32.4961 29.8262 32.6719 29.9199 32.7812C30.0176 32.8867 30.1895 32.9395 30.4355 32.9395C30.5996 32.9395 30.7656 32.9199 30.9336 32.8809V33.9824C30.6094 34.0723 30.2969 34.1172 29.9961 34.1172C28.9023 34.1172 28.3555 33.5137 28.3555 32.3066V28.7148H27.3125V27.6602H28.3555V26.1191H29.7793ZM35.7793 34C35.7168 33.8789 35.6621 33.6816 35.6152 33.4082C35.1621 33.8809 34.6074 34.1172 33.9512 34.1172C33.3145 34.1172 32.7949 33.9355 32.3926 33.5723C31.9902 33.209 31.7891 32.7598 31.7891 32.2246C31.7891 31.5488 32.0391 31.0312 32.5391 30.6719C33.043 30.3086 33.7617 30.127 34.6953 30.127H35.5684V29.7109C35.5684 29.3828 35.4766 29.1211 35.293 28.9258C35.1094 28.7266 34.8301 28.627 34.4551 28.627C34.1309 28.627 33.8652 28.709 33.6582 28.873C33.4512 29.0332 33.3477 29.2383 33.3477 29.4883H31.9238C31.9238 29.1406 32.0391 28.8164 32.2695 28.5156C32.5 28.2109 32.8125 27.9727 33.207 27.8008C33.6055 27.6289 34.0488 27.543 34.5371 27.543C35.2793 27.543 35.8711 27.7305 36.3125 28.1055C36.7539 28.4766 36.9805 29 36.9922 29.6758V32.5352C36.9922 33.1055 37.0723 33.5605 37.2324 33.9004V34H35.7793ZM34.2148 32.9746C34.4961 32.9746 34.7598 32.9062 35.0059 32.7695C35.2559 32.6328 35.4434 32.4492 35.5684 32.2188V31.0234H34.8008C34.2734 31.0234 33.877 31.1152 33.6113 31.2988C33.3457 31.4824 33.2129 31.7422 33.2129 32.0781C33.2129 32.3516 33.3027 32.5703 33.4824 32.7344C33.666 32.8945 33.9102 32.9746 34.2148 32.9746ZM38.2344 30.7832C38.2344 29.7988 38.4648 29.0137 38.9258 28.4277C39.3906 27.8379 40.0059 27.543 40.7715 27.543C41.4941 27.543 42.0625 27.7949 42.4766 28.2988L42.541 27.6602H43.8242V33.8066C43.8242 34.6387 43.5645 35.2949 43.0449 35.7754C42.5293 36.2559 41.832 36.4961 40.9531 36.4961C40.4883 36.4961 40.0332 36.3984 39.5879 36.2031C39.1465 36.0117 38.8105 35.7598 38.5801 35.4473L39.2539 34.5918C39.6914 35.1113 40.2305 35.3711 40.8711 35.3711C41.3438 35.3711 41.7168 35.2422 41.9902 34.9844C42.2637 34.7305 42.4004 34.3555 42.4004 33.8594V33.4316C41.9902 33.8887 41.4434 34.1172 40.7598 34.1172C40.0176 34.1172 39.4102 33.8223 38.9375 33.2324C38.4688 32.6426 38.2344 31.8262 38.2344 30.7832ZM39.6523 30.9062C39.6523 31.543 39.7812 32.0449 40.0391 32.4121C40.3008 32.7754 40.6621 32.957 41.123 32.957C41.6973 32.957 42.123 32.7109 42.4004 32.2188V29.4297C42.1309 28.9492 41.709 28.709 41.1348 28.709C40.666 28.709 40.3008 28.8945 40.0391 29.2656C39.7812 29.6367 39.6523 30.1836 39.6523 30.9062ZM48.6113 28.9609C48.4238 28.9297 48.2305 28.9141 48.0312 28.9141C47.3789 28.9141 46.9395 29.1641 46.7129 29.6641V34H45.2891V27.6602H46.6484L46.6836 28.3691C47.0273 27.8184 47.5039 27.543 48.1133 27.543C48.3164 27.543 48.4844 27.5703 48.6172 27.625L48.6113 28.9609ZM53.123 34C53.0605 33.8789 53.0059 33.6816 52.959 33.4082C52.5059 33.8809 51.9512 34.1172 51.2949 34.1172C50.6582 34.1172 50.1387 33.9355 49.7363 33.5723C49.334 33.209 49.1328 32.7598 49.1328 32.2246C49.1328 31.5488 49.3828 31.0312 49.8828 30.6719C50.3867 30.3086 51.1055 30.127 52.0391 30.127H52.9121V29.7109C52.9121 29.3828 52.8203 29.1211 52.6367 28.9258C52.4531 28.7266 52.1738 28.627 51.7988 28.627C51.4746 28.627 51.209 28.709 51.002 28.873C50.7949 29.0332 50.6914 29.2383 50.6914 29.4883H49.2676C49.2676 29.1406 49.3828 28.8164 49.6133 28.5156C49.8438 28.2109 50.1562 27.9727 50.5508 27.8008C50.9492 27.6289 51.3926 27.543 51.8809 27.543C52.623 27.543 53.2148 27.7305 53.6562 28.1055C54.0977 28.4766 54.3242 29 54.3359 29.6758V32.5352C54.3359 33.1055 54.416 33.5605 54.5762 33.9004V34H53.123ZM51.5586 32.9746C51.8398 32.9746 52.1035 32.9062 52.3496 32.7695C52.5996 32.6328 52.7871 32.4492 52.9121 32.2188V31.0234H52.1445C51.6172 31.0234 51.2207 31.1152 50.9551 31.2988C50.6895 31.4824 50.5566 31.7422 50.5566 32.0781C50.5566 32.3516 50.6465 32.5703 50.8262 32.7344C51.0098 32.8945 51.2539 32.9746 51.5586 32.9746ZM57.166 27.6602L57.207 28.3223C57.6523 27.8027 58.2617 27.543 59.0352 27.543C59.8828 27.543 60.4629 27.8672 60.7754 28.5156C61.2363 27.8672 61.8848 27.543 62.7207 27.543C63.4199 27.543 63.9395 27.7363 64.2793 28.123C64.623 28.5098 64.7988 29.0801 64.8066 29.834V34H63.3828V29.875C63.3828 29.4727 63.2949 29.1777 63.1191 28.9902C62.9434 28.8027 62.6523 28.709 62.2461 28.709C61.9219 28.709 61.6562 28.7969 61.4492 28.9727C61.2461 29.1445 61.1035 29.3711 61.0215 29.6523L61.0273 34H59.6035V29.8281C59.584 29.082 59.2031 28.709 58.4609 28.709C57.8906 28.709 57.4863 28.9414 57.248 29.4062V34H55.8242V27.6602H57.166Z" fill="white" fill-opacity="0.95"/>
<g id="Instagram_3">
<path id="Vector" d="M42 6H36C33.239 6 31 8.239 31 11V17C31 19.761 33.239 22 36 22H42C44.761 22 47 19.761 47 17V11C47 8.239 44.761 6 42 6ZM45.5 17C45.5 18.93 43.93 20.5 42 20.5H36C34.07 20.5 32.5 18.93 32.5 17V11C32.5 9.07 34.07 7.5 36 7.5H42C43.93 7.5 45.5 9.07 45.5 11V17Z" fill="white" fill-opacity="0.75"/>
<path id="Vector_2" d="M39 10C36.791 10 35 11.791 35 14C35 16.209 36.791 18 39 18C41.209 18 43 16.209 43 14C43 11.791 41.209 10 39 10ZM39 16.5C37.622 16.5 36.5 15.378 36.5 14C36.5 12.621 37.622 11.5 39 11.5C40.378 11.5 41.5 12.621 41.5 14C41.5 15.378 40.378 16.5 39 16.5Z" fill="white" fill-opacity="0.75"/>
<path id="Vector_3" d="M43.3 10.233C43.5944 10.233 43.833 9.99436 43.833 9.69999C43.833 9.40562 43.5944 9.16699 43.3 9.16699C43.0056 9.16699 42.767 9.40562 42.767 9.69999C42.767 9.99436 43.0056 10.233 43.3 10.233Z" fill="white" fill-opacity="0.75"/>
</g>
</g>
<defs>
<linearGradient id="paint0_linear_1_12" x1="78" y1="22.7528" x2="8.44885e-07" y2="22.7528" gradientUnits="userSpaceOnUse">
<stop stop-color="#97337A"/>
<stop offset="1" stop-color="#E76E41"/>
</linearGradient>
</defs>
</svg>
