<svg width="69" height="45" viewBox="0 0 69 45" fill="none" xmlns="http://www.w3.org/2000/svg">
<g id="Spotify">
<rect id="Rectangle 4" width="69" height="45" rx="14" fill="url(#paint0_linear_1_52)"/>
<path id="Spotify_2" d="M20.3262 30.8027C20.3262 30.4277 20.1934 30.1387 19.9277 29.9355C19.666 29.7324 19.1914 29.5273 18.5039 29.3203C17.8164 29.1133 17.2695 28.8828 16.8633 28.6289C16.0859 28.1406 15.6973 27.5039 15.6973 26.7188C15.6973 26.0312 15.9766 25.4648 16.5352 25.0195C17.0977 24.5742 17.8262 24.3516 18.7207 24.3516C19.3145 24.3516 19.8438 24.4609 20.3086 24.6797C20.7734 24.8984 21.1387 25.2109 21.4043 25.6172C21.6699 26.0195 21.8027 26.4668 21.8027 26.959H20.3262C20.3262 26.5137 20.1855 26.166 19.9043 25.916C19.627 25.6621 19.2285 25.5352 18.709 25.5352C18.2246 25.5352 17.8477 25.6387 17.5781 25.8457C17.3125 26.0527 17.1797 26.3418 17.1797 26.7129C17.1797 27.0254 17.3242 27.2871 17.6133 27.498C17.9023 27.7051 18.3789 27.9082 19.043 28.1074C19.707 28.3027 20.2402 28.5273 20.6426 28.7812C21.0449 29.0312 21.3398 29.3203 21.5273 29.6484C21.7148 29.9727 21.8086 30.3535 21.8086 30.791C21.8086 31.502 21.5352 32.0684 20.9883 32.4902C20.4453 32.9082 19.707 33.1172 18.7734 33.1172C18.1562 33.1172 17.5879 33.0039 17.0684 32.7773C16.5527 32.5469 16.1504 32.2305 15.8613 31.8281C15.5762 31.4258 15.4336 30.957 15.4336 30.4219H16.916C16.916 30.9062 17.0762 31.2812 17.3965 31.5469C17.7168 31.8125 18.1758 31.9453 18.7734 31.9453C19.2891 31.9453 19.6758 31.8418 19.9336 31.6348C20.1953 31.4238 20.3262 31.1465 20.3262 30.8027ZM28.5234 29.8945C28.5234 30.875 28.3008 31.6582 27.8555 32.2441C27.4102 32.8262 26.8125 33.1172 26.0625 33.1172C25.3672 33.1172 24.8105 32.8887 24.3926 32.4316V35.4375H22.9688V26.6602H24.2812L24.3398 27.3047C24.7578 26.7969 25.3262 26.543 26.0449 26.543C26.8184 26.543 27.4238 26.832 27.8613 27.4102C28.3027 27.9844 28.5234 28.7832 28.5234 29.8066V29.8945ZM27.1055 29.7715C27.1055 29.1387 26.9785 28.6367 26.7246 28.2656C26.4746 27.8945 26.1152 27.709 25.6465 27.709C25.0645 27.709 24.6465 27.9492 24.3926 28.4297V31.2422C24.6504 31.7344 25.0723 31.9805 25.6582 31.9805C26.1113 31.9805 26.4648 31.7988 26.7188 31.4355C26.9766 31.0684 27.1055 30.5137 27.1055 29.7715ZM29.4668 29.7715C29.4668 29.1504 29.5898 28.5918 29.8359 28.0957C30.082 27.5957 30.4277 27.2129 30.873 26.9473C31.3184 26.6777 31.8301 26.543 32.4082 26.543C33.2637 26.543 33.957 26.8184 34.4883 27.3691C35.0234 27.9199 35.3125 28.6504 35.3555 29.5605L35.3613 29.8945C35.3613 30.5195 35.2402 31.0781 34.998 31.5703C34.7598 32.0625 34.416 32.4434 33.9668 32.7129C33.5215 32.9824 33.0059 33.1172 32.4199 33.1172C31.5254 33.1172 30.8086 32.8203 30.2695 32.2266C29.7344 31.6289 29.4668 30.834 29.4668 29.8418V29.7715ZM30.8906 29.8945C30.8906 30.5469 31.0254 31.0586 31.2949 31.4297C31.5645 31.7969 31.9395 31.9805 32.4199 31.9805C32.9004 31.9805 33.2734 31.793 33.5391 31.418C33.8086 31.043 33.9434 30.4941 33.9434 29.7715C33.9434 29.1309 33.8047 28.623 33.5273 28.248C33.2539 27.873 32.8809 27.6855 32.4082 27.6855C31.9434 27.6855 31.5742 27.8711 31.3008 28.2422C31.0273 28.6094 30.8906 29.1602 30.8906 29.8945ZM38.3496 25.1191V26.6602H39.4688V27.7148H38.3496V31.2539C38.3496 31.4961 38.3965 31.6719 38.4902 31.7812C38.5879 31.8867 38.7598 31.9395 39.0059 31.9395C39.1699 31.9395 39.3359 31.9199 39.5039 31.8809V32.9824C39.1797 33.0723 38.8672 33.1172 38.5664 33.1172C37.4727 33.1172 36.9258 32.5137 36.9258 31.3066V27.7148H35.8828V26.6602H36.9258V25.1191H38.3496ZM42.0762 33H40.6523V26.6602H42.0762V33ZM40.5645 25.0137C40.5645 24.7949 40.6328 24.6133 40.7695 24.4688C40.9102 24.3242 41.1094 24.252 41.3672 24.252C41.625 24.252 41.8242 24.3242 41.9648 24.4688C42.1055 24.6133 42.1758 24.7949 42.1758 25.0137C42.1758 25.2285 42.1055 25.4082 41.9648 25.5527C41.8242 25.6934 41.625 25.7637 41.3672 25.7637C41.1094 25.7637 40.9102 25.6934 40.7695 25.5527C40.6328 25.4082 40.5645 25.2285 40.5645 25.0137ZM44.1328 33V27.7148H43.166V26.6602H44.1328V26.0801C44.1328 25.377 44.3281 24.834 44.7188 24.4512C45.1094 24.0684 45.6562 23.877 46.3594 23.877C46.6094 23.877 46.875 23.9121 47.1562 23.9824L47.1211 25.0957C46.9648 25.0645 46.7832 25.0488 46.5762 25.0488C45.8965 25.0488 45.5566 25.3984 45.5566 26.0977V26.6602H46.8457V27.7148H45.5566V33H44.1328ZM50.1035 30.9609L51.3926 26.6602H52.9102L50.3906 33.9609C50.0039 35.0273 49.3477 35.5605 48.4219 35.5605C48.2148 35.5605 47.9863 35.5254 47.7363 35.4551V34.3535L48.0059 34.3711C48.3652 34.3711 48.6348 34.3047 48.8145 34.1719C48.998 34.043 49.1426 33.8242 49.248 33.5156L49.4531 32.9707L47.2266 26.6602H48.7617L50.1035 30.9609Z" fill="white" fill-opacity="0.95"/>
<path id="Spotify_3" d="M34.5 23C39.192 23 43 19.192 43 14.5C43 9.808 39.192 6 34.5 6C29.808 6 26 9.808 26 14.5C26 19.192 29.808 23 34.5 23ZM37.951 18.5063C37.3794 18.5063 35.5738 16.5039 30.4993 17.5437C30.3655 17.5784 30.1905 17.633 30.0913 17.633C29.4432 17.633 29.3193 16.6632 30.0163 16.5152C32.8234 15.8954 35.6921 15.95 38.1387 17.4134C38.7224 17.786 38.4745 18.5063 37.951 18.5063ZM38.874 16.2588C38.7939 16.2375 38.8173 16.3077 38.4511 16.115C36.3084 14.8471 33.1152 14.3357 30.2734 15.107C30.109 15.1517 30.0198 15.1963 29.8654 15.1963C29.1067 15.1963 28.9056 14.0552 29.7322 13.8221C33.0727 12.8836 36.6562 13.4311 39.1509 14.9151C39.4286 15.0794 39.5384 15.2926 39.5384 15.5901C39.5348 15.9599 39.2472 16.2588 38.874 16.2588ZM29.2215 10.9569C32.4253 10.0191 37.2738 10.3152 40.2885 12.0747C41.0613 12.5202 40.7574 13.6472 39.9357 13.6472L39.935 13.6465C39.7565 13.6465 39.6468 13.6018 39.4923 13.5126C37.0535 12.0563 32.6895 11.707 29.8661 12.4954C29.7421 12.5294 29.5877 12.584 29.4234 12.584C28.9708 12.584 28.6251 12.2305 28.6251 11.775C28.6251 11.3097 28.9134 11.0462 29.2215 10.9569Z" fill="white" fill-opacity="0.75"/>
</g>
<defs>
<linearGradient id="paint0_linear_1_52" x1="69" y1="22.7528" x2="7.47398e-07" y2="22.7528" gradientUnits="userSpaceOnUse">
<stop stop-color="#5EE138"/>
<stop offset="1" stop-color="#26E18A"/>
</linearGradient>
</defs>
</svg>
