<svg width="73" height="28" viewBox="0 0 73 28" fill="none" xmlns="http://www.w3.org/2000/svg">
<g id="vCard">
<rect id="Rectangle 10" width="73" height="28" rx="14" fill="url(#paint0_linear_1_147)"/>
<path id="vCard_2" d="M13.2539 17.6943L15.0654 11.6035H16.7744L14.2041 19H13.1377L13.2539 17.6943ZM11.8662 11.6035L13.7119 17.7217L13.8008 19H12.7344L10.1504 11.6035H11.8662ZM23.8359 15.7598H25.5449C25.4902 16.4115 25.3079 16.9925 24.998 17.5029C24.6882 18.0088 24.2529 18.4076 23.6924 18.6992C23.1318 18.9909 22.4505 19.1367 21.6484 19.1367C21.0332 19.1367 20.4795 19.0273 19.9873 18.8086C19.4951 18.5853 19.0736 18.2708 18.7227 17.8652C18.3717 17.4551 18.1029 16.9606 17.916 16.3818C17.7337 15.8031 17.6426 15.1559 17.6426 14.4404V13.6133C17.6426 12.8978 17.736 12.2507 17.9229 11.6719C18.1143 11.0931 18.3877 10.5986 18.7432 10.1885C19.0986 9.77376 19.5247 9.45703 20.0215 9.23828C20.5228 9.01953 21.0856 8.91016 21.71 8.91016C22.5029 8.91016 23.1729 9.05599 23.7197 9.34766C24.2666 9.63932 24.6904 10.0426 24.9912 10.5576C25.2965 11.0726 25.4834 11.6628 25.5518 12.3281H23.8428C23.7972 11.8997 23.6969 11.5329 23.542 11.2275C23.3916 10.9222 23.1683 10.6898 22.8721 10.5303C22.5758 10.3662 22.1885 10.2842 21.71 10.2842C21.318 10.2842 20.9762 10.3571 20.6846 10.5029C20.3929 10.6488 20.1491 10.863 19.9531 11.1455C19.7572 11.4281 19.609 11.7767 19.5088 12.1914C19.4131 12.6016 19.3652 13.071 19.3652 13.5996V14.4404C19.3652 14.9417 19.4085 15.3975 19.4951 15.8076C19.5863 16.2132 19.723 16.5618 19.9053 16.8535C20.0921 17.1452 20.3291 17.3708 20.6162 17.5303C20.9033 17.6898 21.2474 17.7695 21.6484 17.7695C22.1361 17.7695 22.5303 17.6921 22.8311 17.5371C23.1364 17.3822 23.3665 17.1566 23.5215 16.8604C23.681 16.5596 23.7858 16.1927 23.8359 15.7598ZM31.1094 17.5166V13.9893C31.1094 13.7249 31.0615 13.4971 30.9658 13.3057C30.8701 13.1143 30.7243 12.9661 30.5283 12.8613C30.3369 12.7565 30.0954 12.7041 29.8037 12.7041C29.5348 12.7041 29.3024 12.7497 29.1064 12.8408C28.9105 12.932 28.7578 13.055 28.6484 13.21C28.5391 13.3649 28.4844 13.5404 28.4844 13.7363H26.8438C26.8438 13.4447 26.9144 13.1621 27.0557 12.8887C27.1969 12.6152 27.402 12.3714 27.6709 12.1572C27.9398 11.943 28.2611 11.7744 28.6348 11.6514C29.0085 11.5283 29.4277 11.4668 29.8926 11.4668C30.4486 11.4668 30.9408 11.5602 31.3691 11.7471C31.8021 11.9339 32.1416 12.2165 32.3877 12.5947C32.6383 12.9684 32.7637 13.4378 32.7637 14.0029V17.291C32.7637 17.6283 32.7865 17.9313 32.832 18.2002C32.8822 18.4645 32.9528 18.6947 33.0439 18.8906V19H31.3555C31.278 18.8223 31.2165 18.5967 31.1709 18.3232C31.1299 18.0452 31.1094 17.7764 31.1094 17.5166ZM31.3486 14.502L31.3623 15.5205H30.1797C29.8743 15.5205 29.6055 15.5501 29.373 15.6094C29.1406 15.6641 28.9469 15.7461 28.792 15.8555C28.637 15.9648 28.5208 16.097 28.4434 16.252C28.3659 16.4069 28.3271 16.5824 28.3271 16.7783C28.3271 16.9743 28.3727 17.1543 28.4639 17.3184C28.555 17.4779 28.6872 17.6032 28.8604 17.6943C29.0381 17.7855 29.2523 17.8311 29.5029 17.8311C29.8402 17.8311 30.1341 17.7627 30.3848 17.626C30.64 17.4847 30.8405 17.3138 30.9863 17.1133C31.1322 16.9082 31.2096 16.7145 31.2188 16.5322L31.752 17.2637C31.6973 17.4505 31.6038 17.651 31.4717 17.8652C31.3395 18.0794 31.1663 18.2845 30.9521 18.4805C30.7425 18.6719 30.4896 18.8291 30.1934 18.9521C29.9017 19.0752 29.5645 19.1367 29.1816 19.1367C28.6986 19.1367 28.2679 19.041 27.8896 18.8496C27.5114 18.6536 27.2152 18.3916 27.001 18.0635C26.7868 17.7308 26.6797 17.3548 26.6797 16.9355C26.6797 16.5436 26.7526 16.1973 26.8984 15.8965C27.0488 15.5911 27.2676 15.3359 27.5547 15.1309C27.8464 14.9258 28.2018 14.7708 28.6211 14.666C29.0404 14.5566 29.5189 14.502 30.0566 14.502H31.3486ZM36.1406 13.0117V19H34.4932V11.6035H36.0654L36.1406 13.0117ZM38.4033 11.5557L38.3896 13.0869C38.2894 13.0687 38.18 13.055 38.0615 13.0459C37.9476 13.0368 37.8337 13.0322 37.7197 13.0322C37.4372 13.0322 37.1888 13.0732 36.9746 13.1553C36.7604 13.2327 36.5804 13.3467 36.4346 13.4971C36.2933 13.6429 36.1839 13.8206 36.1064 14.0303C36.029 14.2399 35.9834 14.4746 35.9697 14.7344L35.5938 14.7617C35.5938 14.2969 35.6393 13.8662 35.7305 13.4697C35.8216 13.0732 35.9583 12.7246 36.1406 12.4238C36.3275 12.123 36.5599 11.8883 36.8379 11.7197C37.1204 11.5511 37.4463 11.4668 37.8154 11.4668C37.9157 11.4668 38.0228 11.4759 38.1367 11.4941C38.2552 11.5124 38.3441 11.5329 38.4033 11.5557ZM43.8105 17.4688V8.5H45.4648V19H43.9678L43.8105 17.4688ZM38.998 15.3838V15.2402C38.998 14.6797 39.0641 14.1693 39.1963 13.709C39.3285 13.2441 39.5199 12.8454 39.7705 12.5127C40.0212 12.1755 40.3265 11.918 40.6865 11.7402C41.0465 11.5579 41.4521 11.4668 41.9033 11.4668C42.3499 11.4668 42.7419 11.5534 43.0791 11.7266C43.4163 11.8997 43.7035 12.1481 43.9404 12.4717C44.1774 12.7907 44.3665 13.1735 44.5078 13.6201C44.6491 14.0622 44.7493 14.5544 44.8086 15.0967V15.5547C44.7493 16.0833 44.6491 16.5664 44.5078 17.0039C44.3665 17.4414 44.1774 17.8197 43.9404 18.1387C43.7035 18.4577 43.4141 18.7038 43.0723 18.877C42.735 19.0501 42.3408 19.1367 41.8896 19.1367C41.443 19.1367 41.0397 19.0433 40.6797 18.8564C40.3242 18.6696 40.0212 18.4076 39.7705 18.0703C39.5199 17.7331 39.3285 17.3366 39.1963 16.8809C39.0641 16.4206 38.998 15.9215 38.998 15.3838ZM40.6455 15.2402V15.3838C40.6455 15.721 40.6751 16.0355 40.7344 16.3271C40.7982 16.6188 40.8962 16.8763 41.0283 17.0996C41.1605 17.3184 41.3314 17.4915 41.541 17.6191C41.7552 17.7422 42.0104 17.8037 42.3066 17.8037C42.6803 17.8037 42.988 17.7217 43.2295 17.5576C43.471 17.3936 43.6602 17.1725 43.7969 16.8945C43.9382 16.612 44.0339 16.2975 44.084 15.9512V14.7139C44.0566 14.445 43.9997 14.1943 43.9131 13.9619C43.8311 13.7295 43.7194 13.5267 43.5781 13.3535C43.4368 13.1758 43.2614 13.0391 43.0518 12.9434C42.8467 12.8431 42.6029 12.793 42.3203 12.793C42.0195 12.793 41.7643 12.8568 41.5547 12.9844C41.3451 13.112 41.1719 13.2874 41.0352 13.5107C40.903 13.734 40.805 13.9938 40.7412 14.29C40.6774 14.5863 40.6455 14.903 40.6455 15.2402Z" fill="#F4F4F4"/>
<g id="telefon 1" clip-path="url(#clip0_1_147)">
<g id="Group">
<g id="Group_2">
<g id="Group_3">
<path id="Vector" d="M61.6437 15.2613C61.1864 14.8097 60.6154 14.8097 60.1609 15.2613C59.8142 15.6051 59.4675 15.9488 59.1267 16.2984C59.0335 16.3945 58.9548 16.4149 58.8412 16.3508C58.6169 16.2285 58.378 16.1294 58.1624 15.9954C57.1573 15.3633 56.3154 14.5504 55.5696 13.6357C55.1996 13.1812 54.8704 12.6947 54.6402 12.147C54.5936 12.0363 54.6024 11.9635 54.6927 11.8732C55.0394 11.5381 55.3773 11.1944 55.7182 10.8506C56.193 10.3728 56.193 9.81348 55.7152 9.33279C55.4443 9.05894 55.1734 8.79092 54.9024 8.51707C54.6228 8.2374 54.346 7.95481 54.0634 7.67805C53.606 7.23232 53.035 7.23232 52.5806 7.68096C52.231 8.02473 51.8959 8.37723 51.5405 8.71517C51.2113 9.02689 51.0453 9.40853 51.0103 9.85426C50.955 10.5797 51.1327 11.2643 51.3832 11.9314C51.8959 13.3123 52.6767 14.5388 53.6235 15.6633C54.9024 17.184 56.429 18.3872 58.2148 19.2554C59.0189 19.6458 59.8521 19.9458 60.7581 19.9953C61.3815 20.0303 61.9234 19.873 62.3575 19.3865C62.6546 19.0544 62.9897 18.7514 63.3043 18.4338C63.7704 17.9619 63.7733 17.3909 63.3101 16.9248C62.7566 16.3683 62.2002 15.8148 61.6437 15.2613Z" fill="#F4F4F4"/>
<path id="Vector_2" d="M61.0873 12.9394L62.1623 12.7559C61.9933 11.7683 61.5272 10.8739 60.8193 10.163C60.0706 9.41434 59.1238 8.94239 58.0808 8.79672L57.9293 9.87755C58.7363 9.99116 59.4704 10.3553 60.0502 10.9351C60.5979 11.4828 60.9562 12.1761 61.0873 12.9394Z" fill="#F4F4F4"/>
<path id="Vector_3" d="M62.7683 8.26652C61.5272 7.02547 59.957 6.2418 58.2236 6L58.0721 7.08082C59.5695 7.29058 60.9271 7.96937 61.9992 9.03854C63.0159 10.0553 63.683 11.34 63.9248 12.753L64.9998 12.5694C64.7172 10.9322 63.9452 9.4464 62.7683 8.26652Z" fill="#F4F4F4"/>
</g>
</g>
</g>
</g>
</g>
<defs>
<linearGradient id="paint0_linear_1_147" x1="73" y1="14.1573" x2="7.90726e-07" y2="14.1573" gradientUnits="userSpaceOnUse">
<stop stop-color="#38C3E1"/>
<stop offset="1" stop-color="#26E18A"/>
</linearGradient>
<clipPath id="clip0_1_147">
<rect width="14" height="14" fill="white" transform="translate(51 6)"/>
</clipPath>
</defs>
</svg>
