<svg width="108" height="28" viewBox="0 0 108 28" fill="none" xmlns="http://www.w3.org/2000/svg">
<g id="Whats App">
<rect id="Rectangle 9" width="108" height="28" rx="14" fill="url(#paint0_linear_1_141)"/>
<path id="Whats App_2" d="M20.8184 16.5391L22.3496 9.04688H24.0654L21.7686 19H20.1143L18.2207 11.7334L16.2861 19H14.625L12.3281 9.04688H14.0439L15.5889 16.5254L17.4893 9.04688H18.9385L20.8184 16.5391ZM26.8066 12.4102C27.349 11.7812 28.0348 11.4668 28.8643 11.4668C30.4411 11.4668 31.2409 12.3669 31.2637 14.167V19H29.6025V14.2285C29.6025 13.7181 29.4909 13.3581 29.2676 13.1484C29.0488 12.9342 28.7253 12.8271 28.2969 12.8271C27.6315 12.8271 27.1348 13.1234 26.8066 13.7158V19H25.1455V8.5H26.8066V12.4102ZM37.3682 19C37.2952 18.8587 37.2314 18.6286 37.1768 18.3096C36.6481 18.861 36.001 19.1367 35.2354 19.1367C34.4925 19.1367 33.8864 18.9248 33.417 18.501C32.9476 18.0771 32.7129 17.5531 32.7129 16.9287C32.7129 16.1403 33.0046 15.5365 33.5879 15.1172C34.1758 14.6934 35.0143 14.4814 36.1035 14.4814H37.1221V13.9961C37.1221 13.6133 37.015 13.3079 36.8008 13.0801C36.5866 12.8477 36.2607 12.7314 35.8232 12.7314C35.445 12.7314 35.1351 12.8271 34.8936 13.0186C34.652 13.2054 34.5312 13.4447 34.5312 13.7363H32.8701C32.8701 13.3307 33.0046 12.9525 33.2734 12.6016C33.5423 12.2461 33.9069 11.9681 34.3672 11.7676C34.832 11.5671 35.3493 11.4668 35.9189 11.4668C36.7848 11.4668 37.4753 11.6855 37.9902 12.123C38.5052 12.556 38.7695 13.1667 38.7832 13.9551V17.291C38.7832 17.9564 38.8766 18.4873 39.0635 18.8838V19H37.3682ZM35.543 17.8037C35.8711 17.8037 36.1787 17.724 36.4658 17.5645C36.7575 17.4049 36.9762 17.1908 37.1221 16.9219V15.5273H36.2266C35.6113 15.5273 35.1488 15.6344 34.8389 15.8486C34.529 16.0628 34.374 16.3659 34.374 16.7578C34.374 17.0768 34.4788 17.332 34.6885 17.5234C34.9027 17.7103 35.1875 17.8037 35.543 17.8037ZM42.6045 9.80566V11.6035H43.9102V12.834H42.6045V16.9629C42.6045 17.2454 42.6592 17.4505 42.7686 17.5781C42.8825 17.7012 43.083 17.7627 43.3701 17.7627C43.5615 17.7627 43.7552 17.7399 43.9512 17.6943V18.9795C43.5729 19.0843 43.2083 19.1367 42.8574 19.1367C41.5814 19.1367 40.9434 18.4326 40.9434 17.0244V12.834H39.7266V11.6035H40.9434V9.80566H42.6045ZM49.3311 16.9902C49.3311 16.694 49.208 16.4684 48.9619 16.3135C48.7204 16.1585 48.3171 16.0218 47.752 15.9033C47.1868 15.7848 46.7152 15.6344 46.3369 15.4521C45.5075 15.0511 45.0928 14.4701 45.0928 13.709C45.0928 13.071 45.3617 12.5378 45.8994 12.1094C46.4372 11.681 47.1208 11.4668 47.9502 11.4668C48.8343 11.4668 49.5475 11.6855 50.0898 12.123C50.6367 12.5605 50.9102 13.1279 50.9102 13.8252H49.249C49.249 13.5062 49.1305 13.2419 48.8936 13.0322C48.6566 12.818 48.3421 12.7109 47.9502 12.7109C47.5856 12.7109 47.2871 12.7952 47.0547 12.9639C46.8268 13.1325 46.7129 13.3581 46.7129 13.6406C46.7129 13.8958 46.82 14.0941 47.0342 14.2354C47.2484 14.3766 47.6813 14.5202 48.333 14.666C48.9847 14.8073 49.4951 14.9782 49.8643 15.1787C50.238 15.3747 50.5137 15.6117 50.6914 15.8896C50.8737 16.1676 50.9648 16.5049 50.9648 16.9014C50.9648 17.5667 50.6891 18.1068 50.1377 18.5215C49.5863 18.9316 48.8639 19.1367 47.9707 19.1367C47.3646 19.1367 46.8245 19.0273 46.3506 18.8086C45.8766 18.5898 45.5075 18.2891 45.2432 17.9062C44.9788 17.5234 44.8467 17.111 44.8467 16.6689H46.46C46.4827 17.0609 46.6309 17.3639 46.9043 17.5781C47.1777 17.7878 47.54 17.8926 47.9912 17.8926C48.4287 17.8926 48.7614 17.8105 48.9893 17.6465C49.2171 17.4779 49.3311 17.2591 49.3311 16.9902ZM61.6357 16.6826H57.7803L56.9736 19H55.1758L58.9355 9.04688H60.4873L64.2539 19H62.4492L61.6357 16.6826ZM58.2656 15.2881H61.1504L59.708 11.1592L58.2656 15.2881ZM71.377 15.377C71.377 16.5208 71.1172 17.4346 70.5977 18.1182C70.0781 18.7972 69.3809 19.1367 68.5059 19.1367C67.6947 19.1367 67.0452 18.8701 66.5576 18.3369V21.8438H64.8965V11.6035H66.4277L66.4961 12.3555C66.9837 11.763 67.6468 11.4668 68.4854 11.4668C69.3877 11.4668 70.0941 11.804 70.6045 12.4785C71.1195 13.1484 71.377 14.0804 71.377 15.2744V15.377ZM69.7227 15.2334C69.7227 14.4951 69.5745 13.9095 69.2783 13.4766C68.9867 13.0436 68.5674 12.8271 68.0205 12.8271C67.3415 12.8271 66.8538 13.1074 66.5576 13.668V16.9492C66.8584 17.5234 67.3506 17.8105 68.0342 17.8105C68.5628 17.8105 68.9753 17.5986 69.2715 17.1748C69.5723 16.7464 69.7227 16.0993 69.7227 15.2334ZM79.2656 15.377C79.2656 16.5208 79.0059 17.4346 78.4863 18.1182C77.9668 18.7972 77.2695 19.1367 76.3945 19.1367C75.5833 19.1367 74.9339 18.8701 74.4463 18.3369V21.8438H72.7852V11.6035H74.3164L74.3848 12.3555C74.8724 11.763 75.5355 11.4668 76.374 11.4668C77.2764 11.4668 77.9827 11.804 78.4932 12.4785C79.0081 13.1484 79.2656 14.0804 79.2656 15.2744V15.377ZM77.6113 15.2334C77.6113 14.4951 77.4632 13.9095 77.167 13.4766C76.8753 13.0436 76.4561 12.8271 75.9092 12.8271C75.2301 12.8271 74.7425 13.1074 74.4463 13.668V16.9492C74.7471 17.5234 75.2393 17.8105 75.9229 17.8105C76.4515 17.8105 76.8639 17.5986 77.1602 17.1748C77.4609 16.7464 77.6113 16.0993 77.6113 15.2334Z" fill="#F4F4F4"/>
<g id="Group">
<path id="Vector" d="M93.0017 7H92.9983C89.1386 7 86 10.1395 86 14C86 15.5312 86.4935 16.9505 87.3326 18.1029L86.4603 20.7034L89.1509 19.8433C90.2578 20.5765 91.5781 21 93.0017 21C96.8614 21 100 17.8596 100 14C100 10.1404 96.8614 7 93.0017 7ZM97.0749 16.8849C96.906 17.3617 96.2358 17.7572 95.7011 17.8727C95.3354 17.9506 94.8576 18.0128 93.2494 17.346C91.1922 16.4938 89.8675 14.4034 89.7643 14.2677C89.6654 14.1321 88.933 13.1609 88.933 12.1564C88.933 11.1519 89.4431 10.6628 89.6488 10.4528C89.8176 10.2804 90.0967 10.2016 90.3645 10.2016C90.4511 10.2016 90.529 10.206 90.599 10.2095C90.8046 10.2183 90.9079 10.2305 91.0435 10.5551C91.2124 10.962 91.6236 11.9665 91.6726 12.0698C91.7225 12.173 91.7724 12.313 91.7024 12.4486C91.6368 12.5886 91.579 12.6507 91.4757 12.7697C91.3725 12.8888 91.2745 12.9798 91.1712 13.1075C91.0767 13.2186 90.97 13.3376 91.089 13.5433C91.208 13.7445 91.6192 14.4156 92.2248 14.9546C93.0061 15.6502 93.6396 15.8725 93.8663 15.967C94.0351 16.037 94.2364 16.0204 94.3597 15.8891C94.5164 15.7203 94.7098 15.4403 94.9066 15.1646C95.0466 14.9669 95.2234 14.9424 95.4089 15.0124C95.5979 15.078 96.598 15.5724 96.8036 15.6747C97.0092 15.778 97.1449 15.827 97.1947 15.9136C97.2437 16.0002 97.2437 16.4071 97.0749 16.8849Z" fill="#F4F4F4"/>
</g>
</g>
<defs>
<linearGradient id="paint0_linear_1_141" x1="108" y1="14.1573" x2="1.16984e-06" y2="14.1573" gradientUnits="userSpaceOnUse">
<stop stop-color="#5EE138"/>
<stop offset="1" stop-color="#26E18A"/>
</linearGradient>
</defs>
</svg>
