<svg width="69" height="28" viewBox="0 0 69 28" fill="none" xmlns="http://www.w3.org/2000/svg">
<g id="Impressum">
<g id="Rectangle 12" filter="url(#filter0_d_1_160)">
<rect width="69" height="28" rx="14" fill="url(#paint0_linear_1_160)"/>
</g>
<path id="Imprint" d="M13.8438 9.04688V19H12.1279V9.04688H13.8438ZM17.46 13.1074V19H15.8125V11.6035H17.3643L17.46 13.1074ZM17.1934 15.0283L16.6328 15.0215C16.6328 14.5111 16.6966 14.0394 16.8242 13.6064C16.9518 13.1735 17.1387 12.7975 17.3848 12.4785C17.6309 12.1549 17.9362 11.9066 18.3008 11.7334C18.6699 11.5557 19.096 11.4668 19.5791 11.4668C19.9163 11.4668 20.224 11.5169 20.502 11.6172C20.7845 11.7129 21.0283 11.8656 21.2334 12.0752C21.443 12.2848 21.6025 12.5537 21.7119 12.8818C21.8258 13.21 21.8828 13.6064 21.8828 14.0713V19H20.2354V14.2148C20.2354 13.8548 20.1807 13.5723 20.0713 13.3672C19.9665 13.1621 19.8138 13.0163 19.6133 12.9297C19.4173 12.8385 19.1826 12.793 18.9092 12.793C18.5993 12.793 18.335 12.8522 18.1162 12.9707C17.902 13.0892 17.7266 13.251 17.5898 13.4561C17.4531 13.6611 17.3529 13.8981 17.2891 14.167C17.2253 14.4359 17.1934 14.723 17.1934 15.0283ZM21.7803 14.5908L21.0078 14.7617C21.0078 14.3151 21.0693 13.8936 21.1924 13.4971C21.32 13.096 21.5046 12.7451 21.7461 12.4443C21.9922 12.139 22.2952 11.8997 22.6553 11.7266C23.0153 11.5534 23.4277 11.4668 23.8926 11.4668C24.2708 11.4668 24.6081 11.5192 24.9043 11.624C25.2051 11.7243 25.4603 11.8838 25.6699 12.1025C25.8796 12.3213 26.0391 12.6061 26.1484 12.957C26.2578 13.3034 26.3125 13.7227 26.3125 14.2148V19H24.6582V14.208C24.6582 13.8343 24.6035 13.5449 24.4941 13.3398C24.3893 13.1348 24.2389 12.9935 24.043 12.916C23.847 12.834 23.6123 12.793 23.3389 12.793C23.0837 12.793 22.8581 12.8408 22.6621 12.9365C22.4707 13.0277 22.3089 13.1576 22.1768 13.3262C22.0446 13.4902 21.9443 13.6794 21.876 13.8936C21.8122 14.1077 21.7803 14.3402 21.7803 14.5908ZM29.6621 13.0254V21.8438H28.0146V11.6035H29.5322L29.6621 13.0254ZM34.4814 15.2334V15.377C34.4814 15.9147 34.4176 16.4137 34.29 16.874C34.167 17.3298 33.9824 17.7285 33.7363 18.0703C33.4948 18.4076 33.1963 18.6696 32.8408 18.8564C32.4854 19.0433 32.0752 19.1367 31.6104 19.1367C31.1501 19.1367 30.7467 19.0524 30.4004 18.8838C30.0586 18.7106 29.7692 18.4668 29.5322 18.1523C29.2952 17.8379 29.1038 17.4688 28.958 17.0449C28.8167 16.6165 28.7165 16.1471 28.6572 15.6367V15.083C28.7165 14.5407 28.8167 14.0485 28.958 13.6064C29.1038 13.1644 29.2952 12.7839 29.5322 12.4648C29.7692 12.1458 30.0586 11.8997 30.4004 11.7266C30.7422 11.5534 31.141 11.4668 31.5967 11.4668C32.0615 11.4668 32.474 11.5579 32.834 11.7402C33.194 11.918 33.4971 12.1732 33.7432 12.5059C33.9893 12.834 34.1738 13.2305 34.2969 13.6953C34.4199 14.1556 34.4814 14.6683 34.4814 15.2334ZM32.834 15.377V15.2334C32.834 14.8916 32.8021 14.5749 32.7383 14.2832C32.6745 13.987 32.5742 13.7272 32.4375 13.5039C32.3008 13.2806 32.1253 13.1074 31.9111 12.9844C31.7015 12.8568 31.4486 12.793 31.1523 12.793C30.8607 12.793 30.61 12.8431 30.4004 12.9434C30.1908 13.0391 30.0153 13.1735 29.874 13.3467C29.7327 13.5199 29.6234 13.7227 29.5459 13.9551C29.4684 14.1829 29.4137 14.4313 29.3818 14.7002V16.0264C29.4365 16.3545 29.5299 16.6553 29.6621 16.9287C29.7943 17.2021 29.9811 17.4209 30.2227 17.585C30.4688 17.7445 30.7832 17.8242 31.166 17.8242C31.4622 17.8242 31.7152 17.7604 31.9248 17.6328C32.1344 17.5052 32.3053 17.3298 32.4375 17.1064C32.5742 16.8786 32.6745 16.6165 32.7383 16.3203C32.8021 16.0241 32.834 15.7096 32.834 15.377ZM37.5371 13.0117V19H35.8896V11.6035H37.4619L37.5371 13.0117ZM39.7998 11.5557L39.7861 13.0869C39.6859 13.0687 39.5765 13.055 39.458 13.0459C39.3441 13.0368 39.2301 13.0322 39.1162 13.0322C38.8337 13.0322 38.5853 13.0732 38.3711 13.1553C38.1569 13.2327 37.9769 13.3467 37.8311 13.4971C37.6898 13.6429 37.5804 13.8206 37.5029 14.0303C37.4255 14.2399 37.3799 14.4746 37.3662 14.7344L36.9902 14.7617C36.9902 14.2969 37.0358 13.8662 37.127 13.4697C37.2181 13.0732 37.3548 12.7246 37.5371 12.4238C37.724 12.123 37.9564 11.8883 38.2344 11.7197C38.5169 11.5511 38.8428 11.4668 39.2119 11.4668C39.3122 11.4668 39.4193 11.4759 39.5332 11.4941C39.6517 11.5124 39.7406 11.5329 39.7998 11.5557ZM42.5957 11.6035V19H40.9414V11.6035H42.5957ZM40.832 9.66211C40.832 9.41146 40.9141 9.2041 41.0781 9.04004C41.2467 8.87142 41.4792 8.78711 41.7754 8.78711C42.0671 8.78711 42.2972 8.87142 42.4658 9.04004C42.6344 9.2041 42.7188 9.41146 42.7188 9.66211C42.7188 9.9082 42.6344 10.1133 42.4658 10.2773C42.2972 10.4414 42.0671 10.5234 41.7754 10.5234C41.4792 10.5234 41.2467 10.4414 41.0781 10.2773C40.9141 10.1133 40.832 9.9082 40.832 9.66211ZM46.0342 13.1826V19H44.3867V11.6035H45.9385L46.0342 13.1826ZM45.7402 15.0283L45.207 15.0215C45.2116 14.4974 45.2845 14.0166 45.4258 13.5791C45.5716 13.1416 45.7721 12.7656 46.0273 12.4512C46.2871 12.1367 46.597 11.8952 46.957 11.7266C47.3171 11.5534 47.7181 11.4668 48.1602 11.4668C48.5156 11.4668 48.8369 11.5169 49.124 11.6172C49.4157 11.7129 49.6641 11.8701 49.8691 12.0889C50.0788 12.3076 50.2383 12.5924 50.3477 12.9434C50.457 13.2897 50.5117 13.7158 50.5117 14.2217V19H48.8574V14.2148C48.8574 13.8594 48.805 13.5791 48.7002 13.374C48.5999 13.1644 48.4518 13.0163 48.2559 12.9297C48.0645 12.8385 47.8252 12.793 47.5381 12.793C47.2555 12.793 47.0026 12.8522 46.7793 12.9707C46.556 13.0892 46.3669 13.251 46.2119 13.4561C46.0615 13.6611 45.9453 13.8981 45.8633 14.167C45.7812 14.4359 45.7402 14.723 45.7402 15.0283ZM55.584 11.6035V12.8066H51.4141V11.6035H55.584ZM52.6172 9.79199H54.2646V16.9561C54.2646 17.1839 54.2965 17.3594 54.3604 17.4824C54.4287 17.6009 54.5221 17.6807 54.6406 17.7217C54.7591 17.7627 54.8981 17.7832 55.0576 17.7832C55.1715 17.7832 55.2809 17.7764 55.3857 17.7627C55.4906 17.749 55.5749 17.7354 55.6387 17.7217L55.6455 18.9795C55.5088 19.0205 55.3493 19.057 55.167 19.0889C54.9893 19.1208 54.7842 19.1367 54.5518 19.1367C54.1735 19.1367 53.8385 19.0706 53.5469 18.9385C53.2552 18.8018 53.0273 18.5807 52.8633 18.2754C52.6992 17.9701 52.6172 17.5645 52.6172 17.0586V9.79199Z" fill="#F4F4F4" fill-opacity="0.95"/>
</g>
<defs>
<filter id="filter0_d_1_160" x="-10" y="-8" width="89" height="48" filterUnits="userSpaceOnUse" color-interpolation-filters="sRGB">
<feFlood flood-opacity="0" result="BackgroundImageFix"/>
<feColorMatrix in="SourceAlpha" type="matrix" values="0 0 0 0 0 0 0 0 0 0 0 0 0 0 0 0 0 0 127 0" result="hardAlpha"/>
<feOffset dy="2"/>
<feGaussianBlur stdDeviation="5"/>
<feColorMatrix type="matrix" values="0 0 0 0 0.184314 0 0 0 0 0.521569 0 0 0 0 0.882353 0 0 0 0.2 0"/>
<feBlend mode="normal" in2="BackgroundImageFix" result="effect1_dropShadow_1_160"/>
<feBlend mode="normal" in="SourceGraphic" in2="effect1_dropShadow_1_160" result="shape"/>
</filter>
<linearGradient id="paint0_linear_1_160" x1="69" y1="14.1573" x2="7.47398e-07" y2="14.1573" gradientUnits="userSpaceOnUse">
<stop stop-color="#005F95"/>
<stop offset="1" stop-color="#002160"/>
</linearGradient>
</defs>
</svg>
