<svg width="65" height="45" viewBox="0 0 65 45" fill="none" xmlns="http://www.w3.org/2000/svg">
<g id="Linkedin" filter="url(#filter0_d_1_23)">
<rect id="Rectangle 7" width="65" height="45" rx="14" fill="url(#paint0_linear_1_23)"/>
<path id="Linkedin_2" d="M12.3496 33.8164H16.2227V35H10.8672V26.4688H12.3496V33.8164ZM18.7363 35H17.3125V28.6602H18.7363V35ZM17.2246 27.0137C17.2246 26.7949 17.293 26.6133 17.4297 26.4688C17.5703 26.3242 17.7695 26.252 18.0273 26.252C18.2852 26.252 18.4844 26.3242 18.625 26.4688C18.7656 26.6133 18.8359 26.7949 18.8359 27.0137C18.8359 27.2285 18.7656 27.4082 18.625 27.5527C18.4844 27.6934 18.2852 27.7637 18.0273 27.7637C17.7695 27.7637 17.5703 27.6934 17.4297 27.5527C17.293 27.4082 17.2246 27.2285 17.2246 27.0137ZM21.6133 28.6602L21.6543 29.3926C22.123 28.8262 22.7383 28.543 23.5 28.543C24.8203 28.543 25.4922 29.2988 25.5156 30.8105V35H24.0918V30.8926C24.0918 30.4902 24.0039 30.1934 23.8281 30.002C23.6562 29.8066 23.373 29.709 22.9785 29.709C22.4043 29.709 21.9766 29.9688 21.6953 30.4883V35H20.2715V28.6602H21.6133ZM29.0312 32.2812L28.3984 32.9316V35H26.9746V26H28.3984V31.1914L28.8438 30.6348L30.5957 28.6602H32.3066L29.9512 31.3027L32.5586 35H30.9121L29.0312 32.2812ZM35.916 35.1172C35.0137 35.1172 34.2812 34.834 33.7188 34.2676C33.1602 33.6973 32.8809 32.9395 32.8809 31.9941V31.8184C32.8809 31.1855 33.002 30.6211 33.2441 30.125C33.4902 29.625 33.834 29.2363 34.2754 28.959C34.7168 28.6816 35.209 28.543 35.752 28.543C36.6152 28.543 37.2812 28.8184 37.75 29.3691C38.2227 29.9199 38.459 30.6992 38.459 31.707V32.2812H34.3164C34.3594 32.8047 34.5332 33.2188 34.8379 33.5234C35.1465 33.8281 35.5332 33.9805 35.998 33.9805C36.6504 33.9805 37.1816 33.7168 37.5918 33.1895L38.3594 33.9219C38.1055 34.3008 37.7656 34.5957 37.3398 34.8066C36.918 35.0137 36.4434 35.1172 35.916 35.1172ZM35.7461 29.6855C35.3555 29.6855 35.0391 29.8223 34.7969 30.0957C34.5586 30.3691 34.4062 30.75 34.3398 31.2383H37.0527V31.1328C37.0215 30.6562 36.8945 30.2969 36.6719 30.0547C36.4492 29.8086 36.1406 29.6855 35.7461 29.6855ZM39.3027 31.7832C39.3027 30.8066 39.5293 30.0234 39.9824 29.4336C40.4355 28.8398 41.043 28.543 41.8047 28.543C42.4766 28.543 43.0195 28.7773 43.4336 29.2461V26H44.8574V35H43.5684L43.498 34.3438C43.0723 34.8594 42.5039 35.1172 41.793 35.1172C41.0508 35.1172 40.4492 34.8184 39.9883 34.2207C39.5312 33.623 39.3027 32.8105 39.3027 31.7832ZM40.7266 31.9062C40.7266 32.5508 40.8496 33.0547 41.0957 33.418C41.3457 33.7773 41.6992 33.957 42.1562 33.957C42.7383 33.957 43.1641 33.6973 43.4336 33.1777V30.4707C43.1719 29.9629 42.75 29.709 42.168 29.709C41.707 29.709 41.3516 29.8926 41.1016 30.2598C40.8516 30.623 40.7266 31.1719 40.7266 31.9062ZM47.8574 35H46.4336V28.6602H47.8574V35ZM46.3457 27.0137C46.3457 26.7949 46.4141 26.6133 46.5508 26.4688C46.6914 26.3242 46.8906 26.252 47.1484 26.252C47.4062 26.252 47.6055 26.3242 47.7461 26.4688C47.8867 26.6133 47.957 26.7949 47.957 27.0137C47.957 27.2285 47.8867 27.4082 47.7461 27.5527C47.6055 27.6934 47.4062 27.7637 47.1484 27.7637C46.8906 27.7637 46.6914 27.6934 46.5508 27.5527C46.4141 27.4082 46.3457 27.2285 46.3457 27.0137ZM50.7344 28.6602L50.7754 29.3926C51.2441 28.8262 51.8594 28.543 52.6211 28.543C53.9414 28.543 54.6133 29.2988 54.6367 30.8105V35H53.2129V30.8926C53.2129 30.4902 53.125 30.1934 52.9492 30.002C52.7773 29.8066 52.4941 29.709 52.0996 29.709C51.5254 29.709 51.0977 29.9688 50.8164 30.4883V35H49.3926V28.6602H50.7344Z" fill="white" fill-opacity="0.95"/>
<g id="Linkedin_3">
<path id="Vector" d="M26.2644 12.3317H29.6036V23.0571H26.2644V12.3317ZM27.9354 7C29.0023 7 29.8688 7.86613 29.8688 8.93192C29.8688 9.99887 29.0023 10.8654 27.9354 10.8654C26.8638 10.8654 26 9.99887 26 8.93192C26 7.86613 26.8638 7 27.9354 7Z" fill="white" fill-opacity="0.75"/>
<path id="Vector_2" d="M31.6965 12.3317H34.8943V13.7972H34.9399C35.3849 12.9537 36.4741 12.0645 38.0963 12.0645C41.4719 12.0649 42.0962 14.2858 42.0962 17.1743V23.0575H38.7632V17.8423C38.7632 16.5979 38.739 14.9979 37.0298 14.9979C35.294 14.9979 35.0288 16.3526 35.0288 17.7519V23.0575H31.6969V12.3317H31.6965Z" fill="white" fill-opacity="0.75"/>
</g>
</g>
<defs>
<filter id="filter0_d_1_23" x="-10" y="-6" width="85" height="65" filterUnits="userSpaceOnUse" color-interpolation-filters="sRGB">
<feFlood flood-opacity="0" result="BackgroundImageFix"/>
<feColorMatrix in="SourceAlpha" type="matrix" values="0 0 0 0 0 0 0 0 0 0 0 0 0 0 0 0 0 0 127 0" result="hardAlpha"/>
<feOffset dy="4"/>
<feGaussianBlur stdDeviation="5"/>
<feComposite in2="hardAlpha" operator="out"/>
<feColorMatrix type="matrix" values="0 0 0 0 0.113725 0 0 0 0 0.662745 0 0 0 0 0.764706 0 0 0 0.2 0"/>
<feBlend mode="normal" in2="BackgroundImageFix" result="effect1_dropShadow_1_23"/>
<feBlend mode="normal" in="SourceGraphic" in2="effect1_dropShadow_1_23" result="shape"/>
</filter>
<linearGradient id="paint0_linear_1_23" x1="65" y1="22.7528" x2="7.04071e-07" y2="22.7528" gradientUnits="userSpaceOnUse">
<stop stop-color="#24D4DB"/>
<stop offset="1" stop-color="#167BA9"/>
</linearGradient>
</defs>
</svg>
