<svg width="14" height="14" viewBox="0 0 14 14" fill="none" xmlns="http://www.w3.org/2000/svg">
<path d="M13.2749 4.71777C12.8343 4.11106 12.223 3.64474 11.5071 3.36917C10.7911 3.0936 10.025 3.02973 9.2913 3.18441C8.50136 3.35096 7.78621 3.76834 7.2231 4.39142L7 4.63828L6.77688 4.39139C6.21379 3.76831 5.49861 3.35096 4.70868 3.18438C3.97504 3.02973 3.20882 3.0936 2.4929 3.36915C1.77699 3.64472 1.16569 4.11106 0.725102 4.71777C0.250742 5.37098 0 6.16018 0 6.99999C0 7.83979 0.250742 8.62896 0.725102 9.28218C1.16569 9.88888 1.77699 10.3552 2.4929 10.6308C3.20882 10.9064 3.97504 10.9702 4.70868 10.8156C5.49861 10.649 6.21379 10.2316 6.77688 9.60855L6.99997 9.36169L7.22307 9.60855C7.78619 10.2316 8.50134 10.649 9.29127 10.8156C9.55238 10.8706 9.8175 10.898 10.0831 10.898C10.5638 10.8979 11.0459 10.8083 11.507 10.6308C12.223 10.3552 12.8343 9.88888 13.2748 9.28218C13.7493 8.62899 14 7.83979 14 6.99996C14 6.16012 13.7493 5.37098 13.2749 4.71777ZM11.2124 9.86523C10.2613 10.2313 8.87379 10.2116 7.83171 9.05853L5.16575 5.87178L5.15394 5.85811C4.81802 5.48643 4.39111 5.28996 3.91929 5.28996C3.53582 5.28996 3.1232 5.43231 2.81559 5.67078C2.52905 5.89286 2.1875 6.30376 2.1875 6.99999C2.1875 7.69621 2.52905 8.10711 2.81559 8.32919C3.12323 8.56763 3.53582 8.70998 3.91929 8.70998C4.39108 8.70998 4.81802 8.51352 5.15394 8.14183L5.56615 7.64349L6.46477 8.73043L6.16826 9.05853C5.12611 10.2116 3.7386 10.2313 2.78756 9.86523C1.83654 9.49915 0.820312 8.5542 0.820312 6.99996C0.820312 5.44574 1.83654 4.50079 2.78759 4.13472C3.7386 3.76861 5.12613 3.78827 6.16828 4.94141L8.83422 8.12819L8.84603 8.14186C9.18195 8.51354 9.60887 8.71001 10.0807 8.71001C10.4642 8.71001 10.8768 8.56766 11.1844 8.32922C11.4709 8.10713 11.8125 7.69624 11.8125 7.00001C11.8125 6.30379 11.4709 5.89289 11.1844 5.67081C10.8768 5.43234 10.4642 5.28999 10.0807 5.28999C9.60887 5.28999 9.18195 5.48645 8.84603 5.85814L8.43456 6.35558L7.53769 5.2668L7.83174 4.94144C8.87381 3.78838 10.2613 3.76867 11.2124 4.13474C12.1635 4.50082 13.1797 5.44577 13.1797 6.99999C13.1797 8.5542 12.1635 9.49915 11.2124 9.86523ZM5.03415 6.99999L4.53975 7.59802C4.35999 7.79427 4.15696 7.8897 3.91932 7.8897C3.66579 7.8897 3.00781 7.72987 3.00781 7.00001C3.00781 6.27015 3.66579 6.1103 3.91929 6.1103C4.15693 6.1103 4.35996 6.20573 4.53972 6.40195L5.03415 6.99999ZM8.96582 6.99999L9.46025 6.40192C9.64001 6.20568 9.84301 6.11028 10.0807 6.11028C10.3342 6.11028 10.9921 6.27013 10.9921 6.99999C10.9921 7.72984 10.3342 7.88967 10.0807 7.88967C9.84301 7.88967 9.64001 7.79427 9.46025 7.59802L8.96582 6.99999Z" fill="black"/>
</svg>
